<svg width="678" height="679" xmlns="http://www.w3.org/2000/svg" xmlns:xlink="http://www.w3.org/1999/xlink" overflow="hidden"><defs><clipPath id="clip0"><rect x="1228" y="366" width="678" height="679"/></clipPath><clipPath id="clip1"><rect x="1333" y="556" width="278" height="278"/></clipPath><clipPath id="clip2"><rect x="1333" y="556" width="278" height="278"/></clipPath><clipPath id="clip3"><rect x="1333" y="556" width="278" height="278"/></clipPath><clipPath id="clip4"><rect x="1524" y="562" width="278" height="278"/></clipPath><clipPath id="clip5"><rect x="1524" y="562" width="278" height="278"/></clipPath><clipPath id="clip6"><rect x="1524" y="562" width="278" height="278"/></clipPath></defs><g clip-path="url(#clip0)" transform="translate(-1228 -366)"><rect x="1241.5" y="382.5" width="650" height="650" stroke="#000000" stroke-width="22.9167" stroke-linecap="butt" stroke-linejoin="miter" stroke-miterlimit="8" stroke-opacity="1" fill="none"/><path d="M1306.5 707.5C1306.5 563.906 1422.91 447.5 1566.5 447.5 1710.09 447.5 1826.5 563.906 1826.5 707.5 1826.5 851.094 1710.09 967.5 1566.5 967.5 1422.91 967.5 1306.5 851.094 1306.5 707.5Z" stroke="#000000" stroke-width="9.16667" stroke-linecap="butt" stroke-linejoin="miter" stroke-miterlimit="8" stroke-opacity="1" fill="none" fill-rule="evenodd"/><g clip-path="url(#clip1)"><g clip-path="url(#clip2)"><g clip-path="url(#clip3)"><path d="M1464.29 614.708C1419.56 614.708 1383.49 650.776 1383.49 695.5 1383.49 709.638 1387.25 722.911 1393.59 734.453 1399.65 728.105 1406.29 721.757 1413.5 714.832 1431.68 697.808 1453.03 680.496 1470.92 667.8 1472.08 666.934 1473.23 666.357 1474.67 666.357 1477.85 666.357 1480.44 668.954 1480.44 672.128 1480.44 674.148 1479.58 675.591 1478.14 676.745L1478.14 676.745C1452.46 695.211 1418.41 723.777 1395.33 749.746 1395.33 749.746 1392.15 753.208 1390.71 754.94 1377.72 770.232 1369.07 784.082 1369.07 793.893L1386.38 793.893C1386.38 787.545 1396.48 773.695 1411.77 757.248 1425.91 769.367 1444.09 776.58 1464.29 776.58 1478.71 776.58 1492.56 772.829 1504.39 765.904 1566.14 731.568 1573.93 668.377 1573.93 597.396 1573.93 597.396 1506.7 615.862 1464.29 614.708Z" fill="#000000" fill-rule="nonzero" fill-opacity="1"/></g></g></g><g clip-path="url(#clip4)"><g clip-path="url(#clip5)"><g clip-path="url(#clip6)"><path d="M1656.29 619.708C1611.56 619.708 1575.49 655.776 1575.49 700.5 1575.49 714.639 1579.25 727.912 1585.59 739.453 1591.65 733.105 1598.29 726.757 1605.5 719.832 1623.68 702.808 1645.03 685.496 1662.92 672.8 1664.08 671.934 1665.23 671.357 1666.67 671.357 1669.85 671.357 1672.44 673.954 1672.44 677.128 1672.44 679.148 1671.58 680.591 1670.14 681.745L1670.14 681.745C1644.46 700.212 1610.41 728.777 1587.32 754.746 1587.32 754.746 1584.15 758.208 1582.71 759.94 1569.72 775.232 1561.07 789.082 1561.07 798.893L1578.38 798.893C1578.38 792.545 1588.48 778.695 1603.77 762.248 1617.91 774.367 1636.09 781.58 1656.29 781.58 1670.71 781.58 1684.56 777.829 1696.39 770.904 1758.14 736.568 1765.93 673.377 1765.93 602.396 1765.93 602.396 1698.7 620.863 1656.29 619.708Z" fill="#000000" fill-rule="nonzero" fill-opacity="1"/></g></g></g></g></svg>