<svg width="674" height="679" xmlns="http://www.w3.org/2000/svg" xmlns:xlink="http://www.w3.org/1999/xlink" overflow="hidden"><defs><clipPath id="clip0"><rect x="233" y="366" width="674" height="679"/></clipPath><clipPath id="clip1"><rect x="404" y="544" width="331" height="331"/></clipPath><clipPath id="clip2"><rect x="404" y="544" width="331" height="331"/></clipPath><clipPath id="clip3"><rect x="404" y="544" width="331" height="331"/></clipPath></defs><g clip-path="url(#clip0)" transform="translate(-233 -366)"><rect x="245.5" y="382.5" width="650" height="650" stroke="#000000" stroke-width="22.9167" stroke-linecap="butt" stroke-linejoin="miter" stroke-miterlimit="8" stroke-opacity="1" fill="none"/><path d="M310.5 707.5C310.5 563.906 426.906 447.5 570.5 447.5 714.094 447.5 830.5 563.906 830.5 707.5 830.5 851.094 714.094 967.5 570.5 967.5 426.906 967.5 310.5 851.094 310.5 707.5Z" stroke="#000000" stroke-width="9.16667" stroke-linecap="butt" stroke-linejoin="miter" stroke-miterlimit="8" stroke-opacity="1" fill="none" fill-rule="evenodd"/><g clip-path="url(#clip1)"><g clip-path="url(#clip2)"><g clip-path="url(#clip3)"><path d="M561.406 613.75C508.125 613.75 465.156 656.719 465.156 710 465.156 726.844 469.625 742.656 477.187 756.406 484.406 748.844 492.312 741.281 500.906 733.031 522.562 712.75 548 692.125 569.312 677 570.687 675.969 572.062 675.281 573.781 675.281 577.562 675.281 580.656 678.375 580.656 682.156 580.656 684.562 579.625 686.281 577.906 687.656L577.906 687.656C547.312 709.656 506.75 743.687 479.25 774.625 479.25 774.625 475.469 778.75 473.75 780.812 458.281 799.031 447.969 815.531 447.969 827.219L468.594 827.219C468.594 819.656 480.625 803.156 498.844 783.562 515.687 798 537.344 806.594 561.406 806.594 578.594 806.594 595.094 802.125 609.187 793.875 682.75 752.969 692.031 677.687 692.031 593.125 692.031 593.125 611.937 615.125 561.406 613.75Z" fill="#000000" fill-rule="nonzero" fill-opacity="1"/></g></g></g></g></svg>