<svg width="674" height="679" xmlns="http://www.w3.org/2000/svg" xmlns:xlink="http://www.w3.org/1999/xlink" overflow="hidden"><defs><clipPath id="clip0"><rect x="233" y="1365" width="674" height="679"/></clipPath><clipPath id="clip1"><rect x="335" y="1498" width="154" height="154"/></clipPath><clipPath id="clip2"><rect x="335" y="1498" width="154" height="154"/></clipPath><clipPath id="clip3"><rect x="335" y="1498" width="154" height="154"/></clipPath><clipPath id="clip4"><rect x="633" y="1493" width="154" height="154"/></clipPath><clipPath id="clip5"><rect x="633" y="1493" width="154" height="154"/></clipPath><clipPath id="clip6"><rect x="633" y="1493" width="154" height="154"/></clipPath><clipPath id="clip7"><rect x="624" y="1778" width="154" height="154"/></clipPath><clipPath id="clip8"><rect x="624" y="1778" width="154" height="154"/></clipPath><clipPath id="clip9"><rect x="624" y="1778" width="154" height="154"/></clipPath><clipPath id="clip10"><rect x="344" y="1778" width="154" height="154"/></clipPath><clipPath id="clip11"><rect x="344" y="1778" width="154" height="154"/></clipPath><clipPath id="clip12"><rect x="344" y="1778" width="154" height="154"/></clipPath></defs><g clip-path="url(#clip0)" transform="translate(-233 -1365)"><rect x="245.5" y="1378.5" width="650" height="650" stroke="#000000" stroke-width="22.9167" stroke-linecap="butt" stroke-linejoin="miter" stroke-miterlimit="8" stroke-opacity="1" fill="none"/><path d="M293.5 1564.5C293.5 1492.7 351.479 1434.5 423 1434.5 494.521 1434.5 552.5 1492.7 552.5 1564.5 552.5 1636.3 494.521 1694.5 423 1694.5 351.479 1694.5 293.5 1636.3 293.5 1564.5Z" stroke="#000000" stroke-width="9.16667" stroke-linecap="butt" stroke-linejoin="miter" stroke-miterlimit="8" stroke-opacity="1" fill="none" fill-rule="evenodd"/><g clip-path="url(#clip1)"><g clip-path="url(#clip2)"><g clip-path="url(#clip3)"><path d="M72.0418 31.6667C47.5001 31.6667 27.7084 51.4584 27.7084 76.0001 27.7084 83.7585 29.7667 91.0418 33.2501 97.3752 36.5751 93.8918 40.2167 90.4085 44.1751 86.6085 54.1501 77.2668 65.8668 67.7668 75.6835 60.8001 76.3168 60.3251 76.9501 60.0084 77.7418 60.0084 79.4835 60.0084 80.9085 61.4334 80.9085 63.1751 80.9085 64.2835 80.4335 65.0751 79.6418 65.7085L79.6418 65.7085C65.5501 75.8418 46.8668 91.5168 34.2001 105.767 34.2001 105.767 32.4584 107.667 31.6667 108.617 24.5417 117.009 19.7917 124.609 19.7917 129.992L29.2917 129.992C29.2917 126.509 34.8334 118.909 43.2251 109.884 50.9834 116.534 60.9585 120.492 72.0418 120.492 79.9585 120.492 87.5585 118.434 94.0502 114.634 127.934 95.7918 132.209 61.1168 132.209 22.1667 132.209 22.1667 95.3168 32.3001 72.0418 31.6667Z" fill="#000000" fill-rule="nonzero" fill-opacity="1" transform="matrix(1 0 0 1.00658 336 1498)"/></g></g></g><path d="M585.5 1564.5C585.5 1492.7 643.703 1434.5 715.5 1434.5 787.297 1434.5 845.5 1492.7 845.5 1564.5 845.5 1636.3 787.297 1694.5 715.5 1694.5 643.703 1694.5 585.5 1636.3 585.5 1564.5Z" stroke="#000000" stroke-width="9.16667" stroke-linecap="butt" stroke-linejoin="miter" stroke-miterlimit="8" stroke-opacity="1" fill="none" fill-rule="evenodd"/><path d="M293.5 1854.5C293.5 1782.7 351.479 1724.5 423 1724.5 494.521 1724.5 552.5 1782.7 552.5 1854.5 552.5 1926.3 494.521 1984.5 423 1984.5 351.479 1984.5 293.5 1926.3 293.5 1854.5Z" stroke="#000000" stroke-width="9.16667" stroke-linecap="butt" stroke-linejoin="miter" stroke-miterlimit="8" stroke-opacity="1" fill="none" fill-rule="evenodd"/><path d="M585.5 1854.5C585.5 1782.7 643.703 1724.5 715.5 1724.5 787.297 1724.5 845.5 1782.7 845.5 1854.5 845.5 1926.3 787.297 1984.5 715.5 1984.5 643.703 1984.5 585.5 1926.3 585.5 1854.5Z" stroke="#000000" stroke-width="9.16667" stroke-linecap="butt" stroke-linejoin="miter" stroke-miterlimit="8" stroke-opacity="1" fill="none" fill-rule="evenodd"/><g clip-path="url(#clip4)"><g clip-path="url(#clip5)"><g clip-path="url(#clip6)"><path d="M706.516 1525.87C681.812 1525.87 661.891 1545.8 661.891 1570.5 661.891 1578.31 663.962 1585.64 667.469 1592.02 670.815 1588.51 674.481 1585 678.466 1581.18 688.506 1571.77 700.3 1562.21 710.181 1555.2 710.819 1554.72 711.456 1554.4 712.253 1554.4 714.006 1554.4 715.44 1555.84 715.44 1557.59 715.44 1558.71 714.962 1559.5 714.165 1560.14L714.165 1560.14C699.981 1570.34 681.175 1586.12 668.425 1600.46 668.425 1600.46 666.672 1602.37 665.875 1603.33 658.703 1611.78 653.922 1619.43 653.922 1624.85L663.484 1624.85C663.484 1621.34 669.062 1613.69 677.509 1604.61 685.319 1611.3 695.359 1615.28 706.516 1615.28 714.484 1615.28 722.134 1613.21 728.669 1609.39 762.775 1590.42 767.078 1555.52 767.078 1516.31 767.078 1516.31 729.944 1526.51 706.516 1525.87Z" fill="#000000" fill-rule="nonzero" fill-opacity="1"/></g></g></g><g clip-path="url(#clip7)"><g clip-path="url(#clip8)"><g clip-path="url(#clip9)"><path d="M697.516 1810.87C672.812 1810.87 652.891 1830.8 652.891 1855.5 652.891 1863.31 654.962 1870.64 658.469 1877.02 661.816 1873.51 665.481 1870 669.466 1866.18 679.506 1856.77 691.3 1847.21 701.181 1840.2 701.819 1839.72 702.456 1839.4 703.253 1839.4 705.006 1839.4 706.441 1840.84 706.441 1842.59 706.441 1843.71 705.962 1844.5 705.166 1845.14L705.166 1845.14C690.981 1855.34 672.175 1871.12 659.425 1885.46 659.425 1885.46 657.672 1887.37 656.875 1888.33 649.703 1896.78 644.922 1904.43 644.922 1909.85L654.484 1909.85C654.484 1906.34 660.062 1898.69 668.509 1889.61 676.319 1896.3 686.359 1900.28 697.516 1900.28 705.484 1900.28 713.134 1898.21 719.669 1894.39 753.775 1875.42 758.078 1840.52 758.078 1801.31 758.078 1801.31 720.944 1811.51 697.516 1810.87Z" fill="#000000" fill-rule="nonzero" fill-opacity="1"/></g></g></g><g clip-path="url(#clip10)"><g clip-path="url(#clip11)"><g clip-path="url(#clip12)"><path d="M416.516 1810.87C391.813 1810.87 371.891 1830.8 371.891 1855.5 371.891 1863.31 373.963 1870.64 377.469 1877.02 380.816 1873.51 384.481 1870 388.466 1866.18 398.506 1856.77 410.3 1847.21 420.181 1840.2 420.819 1839.72 421.456 1839.4 422.253 1839.4 424.006 1839.4 425.441 1840.84 425.441 1842.59 425.441 1843.71 424.963 1844.5 424.166 1845.14L424.166 1845.14C409.981 1855.34 391.175 1871.12 378.425 1885.46 378.425 1885.46 376.672 1887.37 375.875 1888.33 368.703 1896.78 363.922 1904.43 363.922 1909.85L373.484 1909.85C373.484 1906.34 379.063 1898.69 387.509 1889.61 395.319 1896.3 405.359 1900.28 416.516 1900.28 424.484 1900.28 432.134 1898.21 438.669 1894.39 472.775 1875.42 477.078 1840.52 477.078 1801.31 477.078 1801.31 439.944 1811.51 416.516 1810.87Z" fill="#000000" fill-rule="nonzero" fill-opacity="1"/></g></g></g></g></svg>